<svg xmlns="http://www.w3.org/2000/svg" viewBox="0 0 73 74.79"><defs><style>.a{fill:#58575c;}.b{fill:#fff;}</style></defs><title>Artboard 1</title><polygon class="a" points="0.75 74.04 0.75 15.18 15.18 0.75 72.25 0.75 72.25 59.61 57.82 74.04 0.75 74.04"/><path class="b" d="M71.5,1.5V59.3l-7,7-7,7H1.5V15.49l14-14h56M73,0H14.87L0,14.87V74.79H58.13L73,59.92V0Z"/><path class="b" d="M33.23,22.66H31.41l-3.53-5.79v5.79H26.07V13.86h1.81l3.54,5.81V13.86h1.81Z"/><path class="b" d="M41.73,19.73A3.12,3.12,0,0,1,40.68,22a3.68,3.68,0,0,1-2.49.82,3.31,3.31,0,0,1-2.66-1.14,4.67,4.67,0,0,1-1-3.13V18A5.28,5.28,0,0,1,35,15.74a3.35,3.35,0,0,1,1.28-1.48,4,4,0,0,1,4.39.3,3.35,3.35,0,0,1,1.08,2.29H39.93a1.84,1.84,0,0,0-.47-1.24,1.76,1.76,0,0,0-1.24-.38,1.54,1.54,0,0,0-1.36.65,3.64,3.64,0,0,0-.46,2v.67a3.91,3.91,0,0,0,.43,2.09,1.52,1.52,0,0,0,1.37.66,1.79,1.79,0,0,0,1.25-.38,1.73,1.73,0,0,0,.48-1.19Z"/><path class="b" d="M47.89,20.85H44.71l-.61,1.81H42.17l3.28-8.81h1.68l3.3,8.81H48.5ZM45.2,19.38h2.2l-1.11-3.3Z"/><path class="b" d="M44.17,48.65h3.7v5.22h-3.7v7.06H37.69V53.88H24.3L24,49.8l13.61-21.5h6.55Zm-13.7,0h7.22V37.13l-.43.74Z"/></svg>